<?xml version="1.0" encoding="utf-8"?>
<!-- Generator: Adobe Illustrator 15.0.0, SVG Export Plug-In  -->
<!DOCTYPE svg PUBLIC "-//W3C//DTD SVG 1.1//EN" "http://www.w3.org/Graphics/SVG/1.1/DTD/svg11.dtd" [
	<!ENTITY ns_flows "http://ns.adobe.com/Flows/1.0/">
]>
<svg version="1.1"
	 xmlns="http://www.w3.org/2000/svg" xmlns:xlink="http://www.w3.org/1999/xlink" xmlns:a="http://ns.adobe.com/AdobeSVGViewerExtensions/3.0/"
	 x="0px" y="0px" width="552px" height="222px" viewBox="-4.092 0 552 222" enable-background="new -4.092 0 552 222"
	 xml:space="preserve">
<defs>
</defs>
<path fill="#FFFFFF"  d="M 475.136 89.344 L 471.296 90.112 A 15.123 15.123 0 0 0 470.357 90.398 Q 468.48 91.045 468.48 91.776 Q 468.48 92.547 473.026 94.359 A 83.39 83.39 0 0 0 474.624 94.976 A 35.771 35.771 0 0 1 483.303 99.741 A 43.238 43.238 0 0 1 486.272 102.144 Q 491.776 107.008 494.08 113.92 Q 497.664 124.416 497.664 136.448 Q 497.664 148.48 499.456 156.288 Q 501.197 163.873 503.663 167.955 A 18.259 18.259 0 0 0 503.808 168.192 Q 507.806 174.988 511.335 177.727 A 10.479 10.479 0 0 0 513.28 178.944 L 515.072 179.968 Q 516.608 180.992 516.608 182.528 Q 516.608 185.828 507.343 188.466 A 72.455 72.455 0 0 1 504.064 189.312 Q 491.52 192.256 484.608 192.256 Q 471.04 192.256 467.328 181.376 Q 464.51 173.118 463.832 155.936 A 300.318 300.318 0 0 1 463.616 144.128 L 463.616 130.048 A 57.118 57.118 0 0 0 462.835 120.206 Q 461.938 115.095 460.01 111.234 A 20.053 20.053 0 0 0 450.304 101.632 Q 445.184 99.328 438.016 99.328 L 437.76 99.328 Q 435.708 99.328 435.484 95.776 A 14.724 14.724 0 0 1 435.456 94.848 Q 435.456 90.368 438.144 85.76 Q 440.574 81.594 442.481 81.194 A 1.941 1.941 0 0 1 442.88 81.152 Q 451.328 81.152 457.472 77.952 A 28.497 28.497 0 0 0 461.764 75.237 Q 464.139 73.398 465.715 71.221 A 16.654 16.654 0 0 0 466.432 70.144 A 66.471 66.471 0 0 0 469.521 64.477 Q 472.376 58.518 472.805 53.829 A 18.952 18.952 0 0 0 472.832 53.504 L 472.832 50.176 A 48.582 48.582 0 0 0 472.344 43.095 Q 471.792 39.351 470.615 36.206 A 27.001 27.001 0 0 0 469.76 34.176 Q 467.446 29.259 464.26 26.593 A 13.96 13.96 0 0 0 462.08 25.088 Q 454.4 20.992 446.464 20.992 Q 440.888 20.992 436.702 21.624 A 35.395 35.395 0 0 0 433.408 22.272 A 38.43 38.43 0 0 0 430.995 23.041 Q 427.572 24.269 426.613 25.586 A 1.751 1.751 0 0 0 426.24 26.624 Q 423.936 60.16 423.936 91.264 Q 423.936 116.901 424.545 132.624 A 405.119 405.119 0 0 0 424.832 138.88 Q 425.728 155.392 426.624 165.504 Q 427.422 174.51 427.509 176.917 A 13.995 13.995 0 0 1 427.52 177.408 A 9.659 9.659 0 0 1 427.394 179.032 Q 427.044 181.076 425.728 182.016 Q 418.115 189.072 404.171 191.01 A 83.517 83.517 0 0 1 392.704 191.744 Q 388.864 191.744 388.864 189.184 A 3.265 3.265 0 0 1 388.899 188.759 Q 388.998 188.039 389.37 186.589 A 67.653 67.653 0 0 1 389.632 185.6 A 18.305 18.305 0 0 0 390.614 182.152 Q 392.364 173.619 393.28 149.923 A 819.589 819.589 0 0 0 393.344 148.224 Q 394.496 116.736 394.496 90.752 Q 394.496 67.509 393.677 52.152 A 348.492 348.492 0 0 0 393.472 48.64 Q 391.936 24.32 388.352 19.456 Q 385.536 15.872 385.536 14.464 A 1.753 1.753 0 0 1 385.853 13.505 Q 386.28 12.85 387.281 12.168 A 12.813 12.813 0 0 1 388.352 11.52 Q 404.175 4.103 444.83 3.849 A 466.522 466.522 0 0 1 447.744 3.84 Q 482.304 3.84 499.456 23.296 Q 508.672 34.048 508.672 50.176 A 42.199 42.199 0 0 1 507.524 60.203 A 34.985 34.985 0 0 1 504.832 67.584 Q 500.992 75.264 495.36 79.36 A 69.593 69.593 0 0 1 487.797 84.421 Q 483.728 86.751 479.859 88.08 A 33.992 33.992 0 0 1 475.136 89.344 Z M 189.952 45.312 L 190.976 37.376 Q 190.976 29.37 186.716 25.268 A 13.781 13.781 0 0 0 181.76 22.272 Q 175.905 20.39 172.27 20.045 A 16.143 16.143 0 0 0 170.752 19.968 L 170.496 19.968 Q 162.816 19.968 157.184 22.4 Q 153.054 24.184 150.575 26.587 A 13.406 13.406 0 0 0 148.992 28.416 A 34.178 34.178 0 0 0 144.49 36.766 A 29.095 29.095 0 0 0 142.848 44.032 A 19.922 19.922 0 0 0 148.539 58.007 A 29.231 29.231 0 0 0 151.552 60.8 A 77.49 77.49 0 0 0 162.434 68.106 A 102.844 102.844 0 0 0 172.672 73.088 Q 185.088 78.336 197.504 84.48 Q 209.92 90.624 218.624 102.144 Q 227.328 113.664 227.328 129.792 A 79.217 79.217 0 0 1 225.292 148.336 A 50.022 50.022 0 0 1 207.488 176.896 Q 187.648 192.512 162.432 192.512 A 91.901 91.901 0 0 1 144.06 190.774 Q 132.428 188.401 123.27 182.789 A 56.501 56.501 0 0 1 120.704 181.12 A 40.5 40.5 0 0 1 110.402 171.141 Q 104.289 162.441 104.194 150.895 A 44.386 44.386 0 0 1 104.192 150.528 L 104.192 150.272 Q 104.192 141.133 106.933 134.258 A 32.115 32.115 0 0 1 107.136 133.76 Q 109.235 128.741 111.919 125.609 A 17.596 17.596 0 0 1 114.176 123.392 A 48.179 48.179 0 0 1 119.057 119.852 Q 124.676 116.328 129.536 115.968 L 132.608 115.712 Q 139.776 115.712 145.664 119.168 Q 151.552 122.624 151.552 128.768 Q 151.552 131.84 148.224 133.888 Q 144.896 135.936 142.464 140.032 Q 140.032 144.128 139.776 146.944 L 139.264 149.76 A 25.815 25.815 0 0 0 140.523 158.095 Q 143.093 165.656 150.903 169.38 A 28.666 28.666 0 0 0 153.6 170.496 A 46.793 46.793 0 0 0 156.46 171.402 Q 159.239 172.178 161.241 172.274 A 11.487 11.487 0 0 0 161.792 172.288 A 38.084 38.084 0 0 0 171.859 171.025 A 28.221 28.221 0 0 0 184.448 163.84 A 28.427 28.427 0 0 0 192.961 144.546 A 38.024 38.024 0 0 0 193.024 142.336 A 29.368 29.368 0 0 0 183.193 119.844 A 39.437 39.437 0 0 0 179.712 116.992 Q 169.728 109.824 158.08 104.96 A 808.932 808.932 0 0 1 153.035 102.835 Q 146.801 100.182 143.575 98.65 A 68.042 68.042 0 0 1 142.336 98.048 Q 138.24 96 133.632 93.184 Q 130.104 91.028 125.976 87.521 A 102.328 102.328 0 0 1 123.392 85.248 Q 111.104 74.496 111.104 56.192 A 55.578 55.578 0 0 1 113.084 41.032 A 44.232 44.232 0 0 1 121.088 25.344 A 57.568 57.568 0 0 1 154.672 4.675 A 90.544 90.544 0 0 1 174.848 2.56 Q 192.21 2.56 204.627 8.688 A 49.111 49.111 0 0 1 206.848 9.856 A 31.288 31.288 0 0 1 213.449 14.673 A 20.513 20.513 0 0 1 219.904 29.952 A 26.644 26.644 0 0 1 218.917 37.366 A 21.092 21.092 0 0 1 214.656 45.312 A 16.753 16.753 0 0 1 202.478 51.418 A 20.97 20.97 0 0 1 201.216 51.456 Q 197.376 51.456 193.664 49.92 Q 191.518 49.032 190.613 47.631 A 4.179 4.179 0 0 1 189.952 45.312 Z M 282.88 161.024 L 288.512 160 A 3.32 3.32 0 0 1 289.569 160.154 Q 291.044 160.649 291.071 162.737 A 6.065 6.065 0 0 1 291.072 162.816 A 37.217 37.217 0 0 1 290.481 169.631 Q 289.616 174.272 287.488 177.92 A 25.061 25.061 0 0 1 284.077 182.538 A 18.643 18.643 0 0 1 278.528 186.624 Q 269.824 190.976 263.68 190.976 Q 251.904 190.976 246.016 182.144 A 29.164 29.164 0 0 1 242.544 174.639 Q 240.128 166.918 240.128 155.52 Q 240.128 138.522 249.007 111.827 A 303.967 303.967 0 0 1 249.856 109.312 L 235.008 109.312 A 4.054 4.054 0 0 1 233.894 109.172 Q 232.644 108.814 232.312 107.539 A 4.149 4.149 0 0 1 232.192 106.496 Q 232.192 103.68 236.544 97.408 A 22.737 22.737 0 0 1 238.822 94.591 Q 242.15 91.136 245.76 91.136 L 257.28 91.136 Q 275.456 50.688 300.032 21.248 Q 306.432 13.568 315.776 6.912 A 69.688 69.688 0 0 1 320.054 4.078 Q 324.242 1.54 327.359 0.687 A 11 11 0 0 1 330.24 0.256 Q 334.775 0.256 337.302 3.871 A 11.374 11.374 0 0 1 337.92 4.864 Q 344.576 15.616 353.536 83.456 Q 356.608 112.64 364.16 143.744 Q 370.232 168.751 375.559 176.963 A 12.644 12.644 0 0 0 378.112 179.968 Q 379.648 180.992 379.648 182.528 A 3.427 3.427 0 0 1 378.638 184.82 Q 376.69 186.985 370.984 188.974 A 60.732 60.732 0 0 1 368.768 189.696 Q 359.88 192.415 354.409 192.912 A 25.279 25.279 0 0 1 352.128 193.024 A 38.049 38.049 0 0 1 348.945 192.9 Q 345.824 192.637 343.766 191.817 A 10.121 10.121 0 0 1 343.296 191.616 Q 340.862 190.5 339.874 189.304 A 3.353 3.353 0 0 1 339.456 188.672 Q 335.697 180.528 331.938 153.985 A 694.726 694.726 0 0 1 330.24 141.056 L 328.704 129.024 Q 327.68 116.992 326.656 110.848 L 324.864 109.568 L 271.36 109.312 Q 268.288 122.368 268.288 132.096 Q 268.288 141.824 268.928 146.304 Q 269.453 149.977 271.956 154.08 A 34.711 34.711 0 0 0 273.152 155.904 Q 276.736 161.024 282.88 161.024 Z M 33.792 4.864 L 70.656 6.912 A 162.613 162.613 0 0 0 82.737 6.497 Q 98.088 5.348 105.984 1.024 Q 107.502 0.012 108.644 0 A 2.612 2.612 0 0 1 108.672 0 A 0.753 0.753 0 0 1 109.319 0.409 Q 109.733 1.067 109.808 2.783 A 18.551 18.551 0 0 1 109.824 3.584 Q 109.824 6.908 106.08 14.196 A 95.181 95.181 0 0 1 105.472 15.36 Q 99.072 27.904 87.04 27.904 L 72.96 27.648 Q 70.928 27.648 70.408 29.916 A 5.524 5.524 0 0 0 70.4 29.952 Q 68.608 67.584 68.608 111.232 Q 68.608 146.888 71 168.108 A 181.304 181.304 0 0 0 72.192 176.896 L 72.192 178.176 A 6.987 6.987 0 0 1 70.028 183.12 Q 67.062 186.196 60.032 188.416 A 86.467 86.467 0 0 1 47.688 191.384 A 66.784 66.784 0 0 1 37.12 192.256 Q 33.946 192.256 32.739 191.174 A 2.219 2.219 0 0 1 32 189.44 A 3.265 3.265 0 0 1 32.035 189.015 Q 32.134 188.295 32.506 186.845 A 67.653 67.653 0 0 1 32.768 185.856 Q 35.165 181.062 37.098 144.919 A 1523.101 1523.101 0 0 0 37.76 131.328 Q 39.426 93.892 39.816 70.562 A 780.674 780.674 0 0 0 39.936 57.6 L 39.424 29.696 Q 39.424 28.4 38.331 28.016 A 2.64 2.64 0 0 0 37.888 27.904 A 55.127 55.127 0 0 0 32.32 27.152 Q 29.558 26.914 26.485 26.884 A 91.322 91.322 0 0 0 25.6 26.88 Q 11.776 26.88 5.12 32.512 A 8.182 8.182 0 0 1 3.849 33.267 Q 3.08 33.628 2.335 33.741 A 4.472 4.472 0 0 1 1.664 33.792 Q 0 33.792 0 31.744 A 8.335 8.335 0 0 1 0.282 29.717 Q 0.794 27.692 2.236 24.998 A 43.076 43.076 0 0 1 3.2 23.296 Q 6.4 17.92 9.984 14.08 A 28.74 28.74 0 0 1 26.011 5.553 A 41.942 41.942 0 0 1 33.792 4.864 Z M 276.48 91.136 L 276.736 91.136 Q 312.32 91.136 317.568 91.264 Q 321.956 91.371 323.033 91.031 A 0.74 0.74 0 0 0 323.328 90.88 A 3.082 3.082 0 0 0 323.962 89.946 A 3.785 3.785 0 0 0 324.096 89.6 A 1639.555 1639.555 0 0 0 322.154 75.944 Q 319.144 55.442 317.184 46.72 Q 314.777 36.007 312.369 35.368 A 1.186 1.186 0 0 0 312.064 35.328 A 3.559 3.559 0 0 0 310.454 35.767 Q 308.473 36.78 305.91 40.124 A 38.554 38.554 0 0 0 305.664 40.448 A 204.28 204.28 0 0 0 288.485 65.396 A 153.472 153.472 0 0 0 276.48 91.136 Z" vector-effect="non-scaling-stroke"/>
</svg>
